# xmcd
#
# Track frame offsets: 
#        150
#        16460
#        36888
#        54852
#        73193
#        92253
#        112384
#        130448
#        148710
#        169361
#        181660
#
# Disc length: 2645 seconds
#
# Revision: 0
# Processed by: cddbd v1.5.2PL0 Copyright (c) Steve Scherf et al.
# Submitted via: ExactAudioCopy v1.3
#
DISCID=9b0a530b
DTITLE=孫耀威 - A Second Thought
DYEAR=2012
DGENRE=Pop
TTITLE0=療Dry
TTITLE1=谷底
TTITLE2=從此我的世界多了一秒
TTITLE3=I Do
TTITLE4=超友誼
TTITLE5=一百米
TTITLE6=One Million Miles
TTITLE7=回家
TTITLE8=戰場上的最後聖誕
TTITLE9=浪踏破 Feat. Hardpack 
TTITLE10=放開手
EXTD=
EXTT0=
EXTT1=
EXTT2=
EXTT3=
EXTT4=
EXTT5=
EXTT6=
EXTT7=
EXTT8=
EXTT9=
EXTT10=
PLAYORDER=
